<?xml version="1.0" standalone="no"?>
<!DOCTYPE svg PUBLIC "-//W3C//DTD SVG 20010904//EN"
 "http://www.w3.org/TR/2001/REC-SVG-20010904/DTD/svg10.dtd">
<svg version="1.0" xmlns="http://www.w3.org/2000/svg"
 width="34" height="26" viewBox="0 0 400.000000 300.000000"
 preserveAspectRatio="xMidYMid meet">

<g transform="translate(0.000000,300.000000) scale(0.100000,-0.100000)"
fill="#000000" stroke="none">
<path d="M0 1500 l0 -1500 2000 0 2000 0 0 1500 0 1500 -2000 0 -2000 0 0
-1500z m1190 767 c0 -18 7 -58 16 -88 54 -182 165 -286 454 -426 96 -47 225
-109 286 -139 165 -81 395 -242 394 -277 -1 -7 -24 -37 -53 -68 l-53 -56 -69
65 c-105 96 -209 160 -445 275 -250 122 -373 199 -452 285 -114 124 -146 252
-106 420 12 50 28 55 28 9z m1648 -24 c48 -161 5 -310 -129 -443 -71 -71 -218
-164 -367 -232 l-89 -40 -72 48 -73 48 178 86 c99 48 213 108 254 136 153 100
241 223 264 366 6 37 13 68 17 68 3 0 11 -17 17 -37z m-1358 -704 c189 -30
478 -179 628 -323 76 -72 94 -103 94 -161 0 -102 -89 -178 -208 -179 -98 0
-177 59 -198 147 -7 29 8 102 23 112 5 3 44 -24 87 -60 43 -36 82 -65 87 -65
22 0 47 23 47 44 0 45 -153 163 -344 266 l-99 53 -58 -12 c-70 -14 -107 -2
-155 50 -38 42 -85 111 -79 117 5 5 69 19 95 21 8 0 44 -4 80 -10z m1206 -7
c12 -6 6 -20 -27 -67 -47 -67 -60 -80 -106 -101 -56 -25 -106 -9 -174 53 -32
30 -57 59 -54 63 7 11 85 37 166 55 64 14 167 13 195 -3z"/>
</g>
</svg>
